<svg width="35" height="30" viewBox="0 0 35 30" fill="none" xmlns="http://www.w3.org/2000/svg">

<path d="M10.61 21.09C17.77 21.09 23.57 15.29 23.57 8.13" stroke="#36A9E1" stroke-miterlimit="10" stroke-linecap="round" stroke-linejoin="round"/>
<path d="M23.57 8.13C16.41 8.13 10.61 13.93 10.61 21.09L23.57 8.13Z" stroke="#36A9E1" stroke-miterlimit="10" stroke-linecap="round" stroke-linejoin="round"/>
<path d="M16.65 15.12V19.4V15.12Z" stroke="#36A9E1" stroke-miterlimit="10" stroke-linecap="round" stroke-linejoin="round"/>
<path d="M12.37 15.12H16.65" stroke="#36A9E1" stroke-miterlimit="10" stroke-linecap="round" stroke-linejoin="round"/>
<path d="M20.31 16.47V11.38C20.27 11.42 15.22 11.38 15.22 11.38" stroke="#36A9E1" stroke-miterlimit="10" stroke-linecap="round" stroke-linejoin="round"/>
<path d="M17.09 28.59C24.8109 28.59 31.07 22.3309 31.07 14.61C31.07 6.88906 24.8109 0.630005 17.09 0.630005C9.36905 0.630005 3.10999 6.88906 3.10999 14.61C3.10999 22.3309 9.36905 28.59 17.09 28.59Z" stroke="#36A9E1" stroke-width="1.25" stroke-miterlimit="10" stroke-linecap="round" stroke-linejoin="round"/>
<path d="M0.619995 11.91L3.10999 14.61L5.59 11.91" stroke="#36A9E1" stroke-width="1.25" stroke-miterlimit="10" stroke-linecap="round" stroke-linejoin="round"/>
<path d="M33.55 17.3L31.07 14.61L28.59 17.3" stroke="#36A9E1" stroke-width="1.25" stroke-miterlimit="10" stroke-linecap="round" stroke-linejoin="round"/>

</svg>
