<svg width="30" height="30" viewBox="0 0 30 30" fill="none" xmlns="http://www.w3.org/2000/svg">

<path d="M18.65 16.05C18.83 16.52 18.93 17.04 18.93 17.57C18.93 19.9 17.04 21.8 14.7 21.8C12.36 21.8 10.47 19.91 10.47 17.57C10.47 17.03 10.57 16.52 10.75 16.05" stroke="#36A9E1" stroke-width="1.25" stroke-miterlimit="10" stroke-linecap="round" stroke-linejoin="round"/>
<path d="M18.65 16.05L14.7 6.51001L10.76 16.05" stroke="#36A9E1" stroke-width="1.25" stroke-miterlimit="10" stroke-linecap="round" stroke-linejoin="round"/>
<path d="M14.61 28.59C22.3309 28.59 28.59 22.3309 28.59 14.61C28.59 6.88906 22.3309 0.630005 14.61 0.630005C6.88906 0.630005 0.630005 6.88906 0.630005 14.61C0.630005 22.3309 6.88906 28.59 14.61 28.59Z" stroke="#36A9E1" stroke-width="1.25" stroke-miterlimit="10" stroke-linecap="round" stroke-linejoin="round"/>
<path d="M12.7 17.63C12.7 18.69 13.64 19.58 14.58 19.58" stroke="#36A9E1" stroke-miterlimit="10" stroke-linecap="round" stroke-linejoin="round"/>

</svg>
