<svg width="30" height="30" viewBox="0 0 30 30" fill="none" xmlns="http://www.w3.org/2000/svg">

<path d="M14.61 28.59C22.3309 28.59 28.59 22.3309 28.59 14.61C28.59 6.88906 22.3309 0.630005 14.61 0.630005C6.88906 0.630005 0.630005 6.88906 0.630005 14.61C0.630005 22.3309 6.88906 28.59 14.61 28.59Z" stroke="#36A9E1" stroke-width="1.25" stroke-miterlimit="10" stroke-linecap="round" stroke-linejoin="round"/>
<path d="M14.61 14.66V23.19" stroke="#36A9E1" stroke-width="1.25" stroke-miterlimit="10" stroke-linecap="round" stroke-linejoin="round"/>
<path d="M16.19 12.52C16.19 12.04 15.8 11.66 15.33 11.66C15.03 11.66 14.77 11.81 14.61 12.04C14.45 11.81 14.19 11.66 13.89 11.66C13.41 11.66 13.03 12.05 13.03 12.52C13.03 12.7 13.09 12.87 13.19 13.01H13.18L14.61 14.66L16.04 13.01H16.03C16.13 12.88 16.19 12.71 16.19 12.52Z" stroke="#36A9E1" stroke-width="1.25" stroke-miterlimit="10" stroke-linecap="round" stroke-linejoin="round"/>
<path d="M18.85 10.36C18.85 8.01998 16.95 6.10999 14.6 6.10999C12.25 6.10999 10.35 8.00998 10.35 10.36C8.00998 10.36 6.09998 12.26 6.09998 14.61C6.09998 16.96 7.99998 18.86 10.35 18.86C12.7 18.86 14.6 16.96 14.6 14.61C14.6 16.95 16.5 18.86 18.85 18.86C21.2 18.86 23.1 16.96 23.1 14.61C23.1 12.26 21.2 10.36 18.85 10.36Z" stroke="#36A9E1" stroke-width="1.25" stroke-miterlimit="10" stroke-linecap="round" stroke-linejoin="round"/>
</g>

</svg>
